# xmcd
#
# Track frame offsets: 
#        151
#        14992
#        37318
#        54107
#        95996
#        115683
#        146109
#        165647
#        175848
#        192854
#        208438
#        232569
#        276002
#        291724
#        313913
#        335579
#
# Disc length: 4794 seconds
#
# Revision: 1
# Processed by: cddbd v1.5.2PL0 Copyright (c) Steve Scherf et al.
# Submitted via: ExactAudioCopyFreeDBPlugin 1.0
#
DISCID=0012b810
DTITLE=Hobo Blues Band - Apák rock and rollja CD1
DYEAR=2008
DGENRE=Blues
TTITLE0=A ripacsok bevonulása
TTITLE1=Rolling Stones Blues
TTITLE2=Gazember
TTITLE3=Tisztelet Muddy Watersnek Középeurópai hobo blues I.
TTITLE4=Titkosügynök
TTITLE5=Szélcsend idején
TTITLE6=Tobacco road
TTITLE7=Kopaszkutya
TTITLE8=Kõbánya blues
TTITLE9=Édes otthon
TTITLE10=3:20-as blues
TTITLE11=Hey Joe
TTITLE12=És jött a Latabár
TTITLE13=Blues Jim Morrisonnak
TTITLE14=Vissza a 66-os úton
TTITLE15=Csipkerózsika és a hét törpe
EXTD=
EXTT0=
EXTT1=
EXTT2=
EXTT3=
EXTT4=
EXTT5=
EXTT6=
EXTT7=
EXTT8=
EXTT9=
EXTT10=
EXTT11=
EXTT12=
EXTT13=
EXTT14=
EXTT15=
PLAYORDER=
